<?xml version="1.0" encoding="UTF-8"?>
<svg version="1.1" viewBox="0 0 2048 746" width="1440" height="525" xmlns="http://www.w3.org/2000/svg">
<path transform="translate(96,15)" d="m0 0h16 3 21l14 1 20 4 24 6v3l1-2 9 2 12 5 6 3 7 2 18 10 11 10 6 5 2 3 4 3 2 6 6 8 9 9 1 6 7 9 3 4v2h3l-1 6 4-1 7 10 3 8 4-1 5 6 6 9 4 2 9 7 7 5 6 2h9l10-7 7-3 13-4 9-6 14-7 15-2h7l7 2 6 2v2l10 4 2 5 5-1 6 5v2l8 4 5 5 1 4 4 3 2 4 4 1 4 5 6 13 5 5 6 8-2 1v2l4-1 4 8 8 7 5 5 11 9 15 10 10 3h16l32-16 11-5 19-5 6-1h13l12 7 4 5 4 3 2 10 4 2 4 7 3 9 2 2 2 8 2 1 5 17 1 4 9 1 7-6 9-14 1-3h2l2-5h2l1-4 9-13 20-25 12-11 8-8 13-9 10-6 12-4 17-2 10 1 8 4v2l5 1 12 12 5 7v2l5 2 6 8-1 4 5 7 4 14 5 32 1 5 1 2 1 10 2 4 3 10 1 5 2 1 1 7 4 7 2 5 1 4 7 12 11 6 6 2 6-1h3l12-6 10-8 12-12 9-8 6-2 2-4 4-4h2l2-4 8-6 13-6 9-3 4 1 1-3 4 1 1-1h6l2-2 8 1 4-1 6 2 7 8 5 5 9 10 7 8 3-1 8 4 6 1 9-3 8-4 13-9 8-5 10-8 9-6 5-2 5-1h9l2-1 8 4 1 3 5 2 2 2 1 4h6l3 4 3 1 3 3 2-2v2l4-1 1 2 9-2 11-13 9-13 9-16 7-13 11-14 13-16 13-15 3-1 8-10h2l2-4 13-11 8-6 11-11 9-7 11-7 6-4 16-7 8-2 3 2v-2l5-3 17-1 3-1 3 1 3-1v2l3 1 2-3 11 1 7 4 2-1 12 4 2 2 10 6-2 1 4 4 2-1 1 3h4v4h5l7 7v3l4 1 3 6h3l2 1v3l3 1v2l5 2 4 4 5 1 3 3 3 1 2 3 11 2 5 2h7l2 2 7-2 10-4 13-10 8-8 7-9 8-13 9-12 16-20 10-13 14-14 8-7 14-13h2v-2l8-6h2l2-4 8-6 5-5 11-8 8-5 4-2 16-10 5-2 5-3h2l3-3 7-3 9-3 14-4h8l9-3 13-3 11-1 16-1 12 2 3 2 5 1v2h2l1 3h3l1 3h3l5 10 6 9h3l6 11 1 4 2 1 1-2 2 4 4 2 3 6 8 4 4-1 6 4 4-1 5-1 15-13 10-9 7-5 3-3 5-4 6-8 2-3h3l2-5 10-11h1l1 49 1 85 1 17v574h-2048v-694l5-3 8-6 16-8 12-5 11-3 7-3 5-1 4-1 2 2 1-3 3-1 1 1 1-2 9-1 5-1zm51 3m-44 1m1831 36m13 17m-205 9m231 4m-1691 6m1 2m1 1m1 1m20 31 2 2v-2zm1374 13m-208 11 1 2zm-1011 6m343 58m1045 8m-502 5 1 2zm-1 2 1 2zm-1 2m-657 10m1 1m1148 2m-1267 12m752 6m-73 62m1 1m-211 4 1 2zm-18 2 1 3z" fill="#C5EFFD"/>
<path transform="translate(1055,568)" d="m0 0h104l53 1 23 1h20l41 1 69 1 129 5 47 1 152 6 101 5 97 5 66 5 60 5 31 3v139h-2048v-21l5-87 1-1 33-4 67-10 49-6 57-6 60-5 85-6 233-15 82-4 54-2 116-5 112-4z" fill="#7CB46A"/>
<path transform="translate(2045,183)" d="m0 0h3v424h-10l-55-5-63-5-50-3-177-9-152-6-47-1-129-5-69-1-49-1h-12l-40-2 5-5 12-8 3-6 11-9 8-6 6-2 10-8 8-7 6-5 25-25 11-8 14-10 15-7 23-7h9l15 5 24 14 21 11 7-1 10-5 14-9 5-2 7-7 16-8 29-12 17-7 9-3 3-2 19 1 20-2 13-4 12-7 11-9 12-11 9-10 11-9 13-11 17-13 16-10 4-3 22-6 10-5 12-4h13l17 3 12 6 10 1 14-5 3-2 20-3 11-2 12-1 11-4 8-4 10-10 8-7 9-10 20-30 7-8 11-8 11-4 20-6 12-4 14-6 19-14 14-12 9-9z" fill="#FCC6BA"/>
<path transform="translate(39,313)" d="m0 0h18l20 2 15 5 33 16 25 11 11 7 11 8 21 10 6 2 10-1 30-13 13-5h17l28 8h18l9-2h12l12 2 10 4 20 13 14 10 10 8 14 10 11 7 3 1h35l13 2 12 5 10 6 12 9 12 11 12 9 10 9 8 9 5 4 9 11 14 15 13 10 14 9 14 7 9 3 3 2 25 1 20-4 13-4 23-5 12-5 12-7 18-13 10-9 12-10 15-10 10-3 7-4 9-2h10l20 6 19 9 11 8 11 10 8 7 19 19 8 7 10 10 8 5 16 7 4 1h8l7-2 28-2 11-4 10-5 12-3 12-5 13-3 7-1h10l31 8 12 7 11 10 8 7 10 7 3 3-20 1h-83l-104 2-133 5-114 5-54 2-77 4-74 5-142 9-98 7-67 6-72 8-75 11-21 3-18 2-5 87h-1v-400h7l19-9z" fill="#EFD5AE"/>
<path transform="translate(1949,151)" d="m0 0h5v3l5-1 8 4 15 7 8 2 8 3 17 1 4 1h6l1 5 2-1v-3l19-1 1 1v11l-12 5-8 7-7 7-14 11-15 11-19 8-27 8-11 4-11 8-7 8-9 14-11 16-9 10-17 16-6 4-12 4-2 1-17 2-18 3-10 2-9 4-6 2-10-1-15-7-14-2h-13l-7 3-10 3-8 4-19 5-10 7-14 9-16 13-11 9-14 12-11 12-14 12-10 6-10 5-16 3-20 1-11-1-7 4-10 3-19 8-31 13-9 6-6 6-8 3-13 9-10 4-6-1-23-12-20-12-15-5h-9l-23 7-17 8-13 10-12 9-20 20h-2l-2 4-10 9-12 9-2 2-7 2-13 11-4 2-2 6-11 8-7 5h-36l-11-8-8-7-14-12-12-7-31-8h-10l-16 3-14 5-10 3-11 4-10 5-4 1-28 2-7 2h-8l-11-4-14-7-10-9-9-9-8-7-19-19-11-9-7-6-8-5v-2l8-3 11 1 3 3 7 4 1-3 7 2 4 1 5 3-1 3 1 2 2-3 6 2 15 9 3 3h-2v3l4 1 5 5 5 2 2 1v2l5-4 2 4 1-2 4 2 5 2v3l4-1v-3l4 2 4-1 3 2 5-1 5 5 3-1 3-3 1 3 1-2h2l1 2 4-1 22-1 10-2 8-4h4l2-4 7-3 11-7 5-6 4-1 6-8 10-12 10-16 8-21 5-12 13-25 10-13 10-12 13-10 5-4 6-2 6-4 20-3h4 17l2 4 14 1 5 4 4 1 4 4 7-1 4 5 4 1h3l2 3 17 4v2h17l14-3 16-4 24-8 16-7 14-8 20-13 14-7 3 1 4-2h3l1 2 4-1 2 1v-2h5l4-1 4 3v-2l6 2 3 4 9 1 4 5 9 3v3l10 5 3 5 2 3 3-1 2 4 2 1v-2l3 1 1 6 4-1v-2h4l1 7h6l1-1 11 1 10-4 13-10 7-6 5-5 9-13 9-19 4-4 1-6 8-13 8-12 11-12 15-12 21-14 14-7 15-9 8-4 17-5h24l11 4 10 4 10 5 13 10 14 9 12-1 9-5 6-4 10-11 4-6 5-12 10-18 7-9 4-5 10-6 20-8 27-8 11-1 7-1z" fill="#A3ACF5"/>
<path transform="translate(65,223)" d="m0 0h13l5 2v-2h10l1 1 13 2 19 4 2 1v4l10-2 7 3 2 4h2v-2l5 2 5 6 4 2 5 2 4 8 10 10 2 4 3 1 1-2 10 14 8 10 10 3 5 3h13l26-4h25l16 8 9 12 1 5 10 7 4-2 9 9v-2h2l3 5h7l10-6 5-1 9-7 4-5 8-7 14-9 19-9 6-2 7-1 18-7 15-7 19-5 24-1 6 2 5 3 7 2 2 3 9 4 7 5 3 3 13 9 9 6 6 2h17l16-6 9-5 6-3 12-3 13-1h10l12 3 17 12 4 5 2 7 5 3 3 5 4 5 2 8 8 15 1 5 3 10 2 4 2 9 3 10 3 13 2 9 9 20 6 6-2 2 7 8 7 10 2 6 4 2 1 7 7 13-2 4-9 8-17 12-14 8-13 5-24 5-13 4-16 3-25-1-8-4-10-4-15-8-16-12-10-9-10-11-9-11-9-8-7-8-15-12-8-7-12-10-14-9-11-5-7-2-9-1h-35l-11-6-14-10-12-9-13-10-18-11-10-6-7-2-9-1h-12l-9 2h-18l-28-8h-17l-13 5-30 13-10 1-13-5-17-9-14-10-14-7-18-8-22-11-17-7-7-2-20-2h-18l-16 4-16 8-7-1v-91l7-4 20-4 18-2z" fill="#A3ACF5"/>
<path transform="translate(920,311)" d="m0 0" fill="#FDFDFD"/>
<path transform="translate(696,251)" d="m0 0" fill="#FDFDFD"/>
<path transform="translate(697,253)" d="m0 0" fill="#FDFDFD"/>
<path transform="translate(520,212)" d="m0 0" fill="#FDFDFD"/>
<path transform="translate(289,98)" d="m0 0" fill="#FDFDFD"/>
<path transform="translate(277,81)" d="m0 0" fill="#FDFDFD"/>
<path transform="translate(276,80)" d="m0 0" fill="#FDFDFD"/>
<path transform="translate(275,79)" d="m0 0" fill="#FDFDFD"/>
</svg>
